<svg width="33" height="33" viewBox="0 0 33 33" fill="none" xmlns="http://www.w3.org/2000/svg">
<path d="M31.5011 14.08L18.2911 0.87C17.7311 0.31 16.9811 0 16.1811 0C15.3811 0 14.6411 0.31 14.0711 0.87L0.87111 14.07L0.86111 14.08C-0.29889 15.24 -0.28889 17.13 0.87111 18.29C1.40111 18.82 2.10111 19.13 2.85111 19.16C2.88111 19.16 2.91111 19.16 2.94111 19.16H3.47111V28.88C3.47111 30.8 5.03111 32.37 6.96111 32.37H12.1311C12.6511 32.37 13.0811 31.95 13.0811 31.42V23.8C13.0811 22.92 13.7911 22.21 14.6711 22.21H17.7211C18.6011 22.21 19.3111 22.92 19.3111 23.8V31.42C19.3111 31.94 19.7311 32.37 20.2611 32.37H25.4311C27.3511 32.37 28.9211 30.81 28.9211 28.88V19.16H29.4111C30.2111 19.16 30.9511 18.85 31.5211 18.29C32.6611 17.13 32.6611 15.24 31.5011 14.08Z" fill="#8C8CB6"/>
</svg>
